<svg id="Layer_1" data-name="Layer 1" xmlns="http://www.w3.org/2000/svg" viewBox="0 0 100 100"><defs><style>.cls-1{fill:#ac0c0c;}</style></defs><path class="cls-1" d="M50.17,5c2.11,2.18,4.22,4.37,6.34,6.54.46.48,1,.89,1.46,1.31l-3.8,3.8-1.45-1.37v5.65H47.45V15.28L46,16.6l-3.68-3.7L50,5Z"/><path class="cls-1" d="M95,50c-2.06,2-4.14,4-6.18,6-.6.59-1.13,1.26-1.63,1.83L83.35,54l1.31-1.4H79.23V47.29h5.45l-1.37-1.51L87,42.1l8,7.72Z"/><path class="cls-1" d="M25.57,45l7.9-13.69,1,.56c1.55.89,3.08,1.81,4.65,2.66a1.61,1.61,0,0,0,1.08,0c1.76-.56,2.18-1.81,2-3.55a44.18,44.18,0,0,1,0-4.61H57.92c0,.29,0,.6,0,.91,0,1.81,0,3.63,0,5.44,0,.51.22.72.59,1,1.38,1.15,2.6,1,4,0a41,41,0,0,1,4.1-2.41L74.57,45c-1.56.9-3,1.84-4.59,2.62a2.31,2.31,0,0,0-1.54,2.52,2.08,2.08,0,0,0,1.23,2.08c1.64.83,3.2,1.82,4.9,2.8L66.67,68.7a46.8,46.8,0,0,1-4.1-2.39c-1.36-1-2.55-1.24-3.93-.08-.42.35-.7.58-.69,1.16,0,2.08,0,4.15,0,6.28H42.15v-.91c0-1.81,0-3.63,0-5.44a1.19,1.19,0,0,0-.57-1c-1.4-1.16-2.62-1-4,0a44.21,44.21,0,0,1-4.08,2.39L25.57,55c1.8-1.05,3.55-2.09,5.34-3.07.59-.33.91-.69.71-1.37a.55.55,0,0,1,0-.18c.43-1.63-.51-2.37-1.83-3S27,45.83,25.57,45ZM58,50.07a7.91,7.91,0,1,0-8,7.84A7.9,7.9,0,0,0,58,50.07Z"/><path class="cls-1" d="M16.75,45.88,15.5,47.22h5.61v5.31H15.44l1.32,1.38L13,57.61,5,49.9l8-7.73Z"/><path class="cls-1" d="M42.25,86.83,46,83.14l1.38,1.32V79.07h5.32v5.22l.21.12,1-1.38,3.87,3.9L50.07,95Z"/><path class="cls-1" d="M29.51,23.51h-2l4,3.89-3.95,4-3.89-4v2H18.47V18.29h11Z"/><path class="cls-1" d="M23.67,70.45v2l3.74-4.08,4,4L27.45,76.2l2.05.11v5.15h-11v-11Z"/><path class="cls-1" d="M72.82,31.25l-4-4,3.82-3.75H70.61V18.29h11V29.34H76.49l-.11-2Z"/><path class="cls-1" d="M70.64,76.26h2l-3.85-3.73,3.82-3.82,3.51,3.67.24-.09.11-1.85h5.16v11h-11Z"/><path class="cls-1" d="M52.68,50a2.62,2.62,0,0,1-2.59,2.65A2.63,2.63,0,1,1,50,47.37,2.61,2.61,0,0,1,52.68,50Z"/></svg>