<svg id="Layer_1" data-name="Layer 1" xmlns="http://www.w3.org/2000/svg" viewBox="0 0 100 100"><defs><style>.cls-1{fill:#ac0c0c;}</style></defs><path class="cls-1" d="M69.28,95c-5.7,0-11.26.14-16.81,0a9.4,9.4,0,0,1-8.87-9.33q-.08-22.74,0-45.48A9.47,9.47,0,0,1,53,30.74q16.31-.09,32.63,0A9.45,9.45,0,0,1,95,39.92c.09,9.67,0,19.34,0,29a3.31,3.31,0,0,1-.07.34H79.32a9.64,9.64,0,0,0-10,10c0,4.82,0,9.64,0,14.46Zm0-51.38H60A3.23,3.23,0,1,0,59.94,50H78.62a3.23,3.23,0,1,0-.05-6.42ZM66.1,56.42c-2.08,0-4.15,0-6.23,0a3.22,3.22,0,1,0,0,6.42H72.31a3.21,3.21,0,1,0,0-6.42C70.24,56.41,68.17,56.42,66.1,56.42Z"/><path class="cls-1" d="M5,75.63c0-4.14,0-8.29,0-12.44a6.42,6.42,0,0,1,6.82-6.77q9.29,0,18.57,0a6.41,6.41,0,0,1,6.74,6.74q0,12.54,0,25.09A6.4,6.4,0,0,1,30.38,95q-9.28,0-18.57,0A6.43,6.43,0,0,1,5,88.18C5,84,5,79.82,5,75.63Zm19.28.08c0-1.11,0-2.21,0-3.32a3.21,3.21,0,0,0-3.17-3.12,3.18,3.18,0,0,0-3.23,3.15q-.06,3.27,0,6.52a3.21,3.21,0,0,0,6.41,0C24.31,77.85,24.29,76.78,24.29,75.71Z"/><path class="cls-1" d="M72.87,5H88.12C92.28,5,95,7.7,95,11.84c0,2,0,3.94,0,5.92a6.39,6.39,0,0,1-6.56,6.52q-15.56,0-31.12,0a9.09,9.09,0,0,1-3.18-.73c-2.2-.89-4.34-1.92-6.5-2.9a6.22,6.22,0,0,1-4-6,6.24,6.24,0,0,1,4-5.94c2.16-1,4.3-2,6.5-2.89A9.9,9.9,0,0,1,57.51,5C62.63,5,67.75,5,72.87,5Z"/><path class="cls-1" d="M33.49,49.51A18.06,18.06,0,0,1,30.8,50c-6.49,0-13,.05-19.48,0A6.32,6.32,0,0,1,5,43.71Q5,27.49,5,11.28A6.3,6.3,0,0,1,11.24,5C17.8,5,24.36,5,30.92,5a15.16,15.16,0,0,1,2.59.48l-7.94,8.74c-2,2.18-4,4.35-5.94,6.53a9.6,9.6,0,0,0,0,13.43l13,14.34C32.89,48.8,33.1,49.06,33.49,49.51Z"/><path class="cls-1" d="M37.06,43.82c-4-4.37-7.77-8.66-11.7-12.81-2.69-2.84-2.59-4.27,0-7C29.23,19.91,33,15.7,36.73,11.54a3.72,3.72,0,0,1,.33-.27Z"/><path class="cls-1" d="M92.8,75.7l-17,17a5,5,0,0,1-.06-.59c0-4.28,0-8.57,0-12.85a3.21,3.21,0,0,1,3.48-3.51C83.71,75.69,88.22,75.7,92.8,75.7Z"/></svg>