<svg id="Layer_1" data-name="Layer 1" xmlns="http://www.w3.org/2000/svg" viewBox="0 0 100 100"><defs><style>.cls-1{fill:#ac0c0c;}</style></defs><path class="cls-1" d="M95,47.36H52.64V5h5.09a5.52,5.52,0,0,0,.68.15,38,38,0,0,1,18.83,6.57A39.3,39.3,0,0,1,94.31,37.59c.3,1.55.46,3.12.69,4.67Z"/><path class="cls-1" d="M84.23,52.63A39.93,39.93,0,0,1,61.32,91.29,38.81,38.81,0,0,1,18.79,85c.21-.23.42-.46.64-.68q15.5-15.51,31-31a2,2,0,0,1,1.6-.67q15.6,0,31.19,0Z"/><path class="cls-1" d="M43.43,52.69,15,81.09C2.33,67.76.18,43.19,17.48,26.74Z"/><path class="cls-1" d="M47.33,15.76V48.5L21.89,23.06A39.58,39.58,0,0,1,47.33,15.76Z"/></svg>