<svg id="Layer_1" data-name="Layer 1" xmlns="http://www.w3.org/2000/svg" viewBox="0 0 100 100"><defs><style>.cls-1{fill:#ac0c0c;}</style></defs><path class="cls-1" d="M95,92.66c-.38,0-.75-.08-1.13-.08H68.44V47.64H95Z"/><path class="cls-1" d="M63.25,92.52H36.7V34.34H63.25Z"/><path class="cls-1" d="M5,92.52V56.87H31.54V92.52Z"/><path class="cls-1" d="M42.6,30.51c.45-2.68.85-5.19,1.31-7.69a1.17,1.17,0,0,0-.4-1.22c-1.63-1.56-3.24-3.14-4.85-4.72-.2-.19-.39-.41-.68-.72,2.05-.3,4-.72,5.91-.84a3.51,3.51,0,0,0,3.55-2.51c.7-1.85,1.73-3.58,2.66-5.47.18.3.31.51.42.74,1,1.94,2,3.86,2.85,5.83a1.86,1.86,0,0,0,1.69,1.21c2.18.26,4.35.6,6.52.92.2,0,.39.1.54.13-.78.83-1.53,1.67-2.33,2.48-1,1-2,2-3,2.94a1.24,1.24,0,0,0-.4,1.32q.59,3.29,1.15,6.57c0,.28.06.57.1,1l-2.48-1.3c-1.14-.6-2.33-1.12-3.4-1.81a2.62,2.62,0,0,0-3.17,0C46.7,28.47,44.71,29.4,42.6,30.51Z"/><path class="cls-1" d="M70,29.37c2.42-.35,4.91-.73,7.4-1.06a1.22,1.22,0,0,0,1.06-.75c1.1-2.29,2.24-4.57,3.44-7l.55,1.07c1,1.94,1.93,3.87,2.86,5.83a1.34,1.34,0,0,0,1.17.86c2.41.3,4.81.68,7.21,1,.08,0,.15.06.32.12-.24.25-.42.46-.62.66-1.63,1.6-3.28,3.18-4.89,4.8a1.44,1.44,0,0,0-.34,1c.35,2.31.76,4.62,1.15,6.93,0,.22,0,.45.1.82l-1.64-.84c-1.68-.88-3.38-1.74-5-2.67a1.47,1.47,0,0,0-1.61,0c-1.92,1.07-3.88,2.06-5.82,3.08l-.91.45c.29-1.76.56-3.37.82-5,.19-1.12.72-2.36.42-3.34s-1.47-1.6-2.24-2.4C72.23,31.8,71.11,30.58,70,29.37Z"/><path class="cls-1" d="M10.28,52.66c.46-2.64.85-5.09,1.31-7.53a1.45,1.45,0,0,0-.48-1.45c-1.73-1.79-3.4-3.63-5-5.39l4.4-.66c.95-.14,1.91-.29,2.87-.39a1.2,1.2,0,0,0,1-.78c1-2,2-4,3-6.06.12-.26.27-.5.48-.89.53,1.08,1,2,1.48,3a21.76,21.76,0,0,1,1.37,2.84,2.89,2.89,0,0,0,3,2.12c2.07.18,4.11.56,6.31.88-.24.26-.38.45-.56.62-1.65,1.61-3.3,3.24-5,4.83A1.19,1.19,0,0,0,24.05,45c.46,2.5.86,5,1.32,7.67l-2.53-1.32c-1.45-.76-2.91-1.5-4.34-2.29a1.24,1.24,0,0,0-1.37,0c-1.93,1.05-3.88,2.06-5.82,3.08C11,52.31,10.75,52.44,10.28,52.66Z"/></svg>